<svg xmlns="http://www.w3.org/2000/svg" viewBox="0 0 1000 34" width="1000" height="34" role="img" aria-label="divider"><defs>
  <filter id="wcblur" x="-30%" y="-30%" width="160%" height="160%">
    <feGaussianBlur stdDeviation="3"/>
  </filter>
  <filter id="softglow" x="-60%" y="-60%" width="220%" height="220%">
    <feGaussianBlur stdDeviation="2.4" result="b"/>
    <feMerge><feMergeNode in="b"/><feMergeNode in="SourceGraphic"/></feMerge>
  </filter>
  <filter id="bigglow" x="-80%" y="-80%" width="260%" height="260%">
    <feGaussianBlur stdDeviation="6" result="b"/>
    <feMerge><feMergeNode in="b"/><feMergeNode in="SourceGraphic"/></feMerge>
  </filter>
  <filter id="grain">
    <feTurbulence type="fractalNoise" baseFrequency="0.8" numOctaves="2"
      seed="7" stitchTiles="stitch"/>
    <feColorMatrix type="matrix"
      values="0 0 0 0 0.26 0 0 0 0 0.22 0 0 0 0 0.16 0 0 0 0.05 0"/>
  </filter></defs><path d="M 29.6 18.1 Q 76.6 18.4 100.7 17.4 Q 124.7 16.4 147.1 17.8 Q 169.6 19.2 193.6 18.1 Q 217.6 17.0 242.5 17.5 Q 267.3 17.9 290.6 17.9 Q 313.9 17.9 337.1 17.3 Q 360.3 16.7 383.8 18.0 Q 407.4 19.3 430.7 18.8 L 454.0 18.3" fill="none" stroke="#a18a68" stroke-width="2.2" stroke-linecap="round" stroke-linejoin="round" opacity="0.9"/><path d="M 90.0 23.2 Q 138.2 22.0 161.1 22.3 Q 184.1 22.6 208.3 23.3 Q 232.5 23.9 257.0 23.6 Q 281.4 23.3 305.1 23.4 Q 328.7 23.5 352.0 23.1 Q 375.3 22.8 399.5 23.1 L 423.6 23.5" fill="none" stroke="#7b9cc9" stroke-width="1.3" stroke-linecap="round" stroke-linejoin="round" opacity="0.55"/><path d="M 969.6 17.4 Q 922.5 16.8 898.4 17.2 Q 874.2 17.6 852.2 18.4 Q 830.2 19.1 806.3 18.0 Q 782.5 17.0 758.5 17.1 Q 734.6 17.2 710.4 16.9 Q 686.2 16.6 662.7 18.1 Q 639.2 19.5 616.7 19.3 Q 594.3 19.1 570.4 18.3 L 546.4 17.6" fill="none" stroke="#a18a68" stroke-width="2.2" stroke-linecap="round" stroke-linejoin="round" opacity="0.9"/><path d="M 909.7 23.2 Q 862.8 24.0 838.2 23.1 Q 813.7 22.2 789.8 22.2 Q 765.9 22.2 742.8 22.1 Q 719.8 22.0 695.7 22.1 Q 671.5 22.2 647.3 22.5 Q 623.1 22.8 599.8 23.0 L 576.4 23.1" fill="none" stroke="#7b9cc9" stroke-width="1.3" stroke-linecap="round" stroke-linejoin="round" opacity="0.55"/><g filter="url(#softglow)"><path d="M 500.0 10.0 L 508.0 18.0 L 500.0 26.0 L 492.0 18.0 Z" fill="none" stroke="#7b9cc9" stroke-width="2.0" stroke-linecap="round" stroke-linejoin="round" opacity="1.0"/><circle cx="500.0" cy="18.0" r="2.6" fill="#7fd6e8"><animate attributeName="opacity" values="0.3;1;0.3" dur="3.2s" repeatCount="indefinite"/></circle></g><path d="M 474.0 9.5 Q 474.99 13.01 478.5 14.0 Q 474.99 14.99 474.0 18.5 Q 473.01 14.99 469.5 14.0 Q 473.01 13.01 474.0 9.5 Z" fill="#d9b36a" filter="url(#softglow)"><animate attributeName="opacity" values="0.17516130563368432;1;0.17516130563368432" dur="2.6s" begin="0.6s" repeatCount="indefinite"/></path><path d="M 526.0 16.5 Q 526.99 20.01 530.5 21.0 Q 526.99 21.99 526.0 25.5 Q 525.01 21.99 521.5 21.0 Q 525.01 20.01 526.0 16.5 Z" fill="#d9b36a" filter="url(#softglow)"><animate attributeName="opacity" values="0.1917703254517334;1;0.1917703254517334" dur="2.7s" begin="1.8s" repeatCount="indefinite"/></path></svg>