<svg xmlns="http://www.w3.org/2000/svg" viewBox="0 0 480 640" width="480" height="640" role="img" aria-label="original placeholder art"><defs>
  <filter id="wcblur" x="-30%" y="-30%" width="160%" height="160%">
    <feGaussianBlur stdDeviation="3"/>
  </filter>
  <filter id="softglow" x="-60%" y="-60%" width="220%" height="220%">
    <feGaussianBlur stdDeviation="2.4" result="b"/>
    <feMerge><feMergeNode in="b"/><feMergeNode in="SourceGraphic"/></feMerge>
  </filter>
  <filter id="bigglow" x="-80%" y="-80%" width="260%" height="260%">
    <feGaussianBlur stdDeviation="6" result="b"/>
    <feMerge><feMergeNode in="b"/><feMergeNode in="SourceGraphic"/></feMerge>
  </filter>
  <filter id="grain">
    <feTurbulence type="fractalNoise" baseFrequency="0.8" numOctaves="2"
      seed="7" stitchTiles="stitch"/>
    <feColorMatrix type="matrix"
      values="0 0 0 0 0.26 0 0 0 0 0.22 0 0 0 0 0.16 0 0 0 0.05 0"/>
  </filter></defs><rect x="1.5" y="1.5" width="477" height="637" rx="14" fill="#f9f1de"/><path d="M 6.5 7.4 Q 53.7 7.2 77.0 6.6 Q 100.3 5.9 123.9 6.0 Q 147.5 6.1 171.0 5.6 Q 194.4 5.2 217.2 5.4 Q 240.0 5.7 263.8 6.4 Q 287.7 7.1 311.5 6.9 Q 335.4 6.8 358.4 6.5 Q 381.3 6.2 405.2 5.7 Q 429.1 5.2 452.4 5.3 L 475.8 5.4 M 475.7 5.6 Q 475.6 52.8 475.4 77.7 Q 475.3 102.6 475.4 126.8 Q 475.5 151.0 475.1 174.6 Q 474.7 198.2 474.9 222.5 Q 475.0 246.7 474.7 271.3 Q 474.4 295.9 474.8 319.5 Q 475.3 343.1 475.5 367.4 Q 475.7 391.7 475.6 416.1 Q 475.4 440.6 474.9 464.9 Q 474.3 489.3 474.3 513.8 Q 474.3 538.4 474.9 561.8 Q 475.5 585.2 475.2 609.7 L 474.9 634.2 M 475.0 634.3 Q 428.6 633.9 405.2 634.0 Q 381.7 634.2 357.7 633.8 Q 333.7 633.5 311.1 633.5 Q 288.6 633.6 264.2 633.8 Q 239.8 633.9 217.0 633.3 Q 194.1 632.8 170.5 633.1 Q 146.8 633.4 123.9 633.1 Q 100.9 632.7 76.8 633.1 Q 52.7 633.4 29.8 633.2 L 6.8 633.0 M 6.9 632.4 Q 7.2 585.4 7.1 560.9 Q 7.1 536.5 6.8 512.3 Q 6.5 488.1 5.9 464.3 Q 5.3 440.5 6.3 416.3 Q 7.3 392.1 6.5 368.3 Q 5.8 344.5 5.8 320.4 Q 5.8 296.4 6.6 272.5 Q 7.3 248.6 6.2 223.5 Q 5.1 198.5 5.2 174.6 Q 5.3 150.6 5.7 126.5 Q 6.0 102.4 6.4 79.0 Q 6.9 55.6 6.4 31.1 L 5.8 6.5" fill="none" stroke="#43382b" stroke-width="2.2" stroke-linecap="round" stroke-linejoin="round" opacity="1.0"/><path d="M 4.6 4.0 Q 52.3 3.5 76.3 4.0 Q 100.4 4.6 123.0 5.2 Q 145.6 5.8 169.6 5.1 Q 193.6 4.5 217.0 4.4 Q 240.5 4.3 263.6 5.1 Q 286.7 5.9 310.9 5.1 Q 335.0 4.3 358.6 4.1 Q 382.1 3.8 405.4 4.7 Q 428.7 5.5 451.5 5.3 L 474.3 5.2 M 474.2 4.5 Q 473.2 51.8 474.2 76.9 Q 475.2 102.1 475.1 125.3 Q 475.0 148.4 474.1 173.1 Q 473.3 197.8 473.9 221.6 Q 474.5 245.3 473.9 269.1 Q 473.4 292.9 473.8 317.3 Q 474.2 341.8 474.3 366.9 Q 474.3 391.9 474.0 415.5 Q 473.6 439.1 473.5 462.7 Q 473.3 486.4 474.5 510.8 Q 475.7 535.3 475.3 560.4 Q 474.9 585.5 474.4 609.1 L 473.9 632.7 M 474.4 631.8 Q 429.3 632.9 405.4 633.1 Q 381.6 633.4 357.7 634.1 Q 333.9 634.8 311.3 634.1 Q 288.7 633.5 265.5 634.0 Q 242.3 634.5 218.7 634.1 Q 195.1 633.7 171.1 633.8 Q 147.1 633.8 123.8 634.2 Q 100.5 634.5 78.5 635.3 Q 56.5 636.2 32.6 635.3 L 8.8 634.5 M 8.5 634.2 Q 7.3 590.8 7.4 568.2 Q 7.5 545.5 7.6 521.9 Q 7.8 498.4 8.3 477.1 Q 8.9 455.8 7.7 432.7 Q 6.5 409.5 6.8 386.9 Q 7.1 364.4 6.3 342.1 Q 5.6 319.9 5.3 296.3 Q 5.0 272.7 4.7 251.8 Q 4.4 230.8 5.0 208.3 Q 5.6 185.9 5.1 163.1 Q 4.5 140.4 4.5 116.7 Q 4.4 93.1 4.9 70.4 Q 5.5 47.7 4.8 26.0 L 4.2 4.2" fill="none" stroke="#43382b" stroke-width="1.2100000000000002" stroke-linecap="round" stroke-linejoin="round" opacity="0.35"/><path d="M 341.2 315.5 Q 314.3 379.5 279.6 380.0 Q 244.8 380.5 209.5 396.3 Q 174.2 412.1 142.9 391.1 Q 111.6 370.1 93.0 338.6 Q 74.5 307.1 75.8 272.0 Q 77.1 236.9 79.4 201.1 Q 81.6 165.2 114.6 149.8 Q 147.6 134.3 174.8 114.6 Q 202.1 95.0 234.8 102.9 Q 267.6 110.9 297.2 124.8 Q 326.8 138.7 356.1 162.1 Q 385.4 185.5 373.2 222.0 Q 361.0 258.6 351.1 287.0 Q 341.2 315.5 327.8 347.5 Z" fill="#4f79b3" opacity="0.09" filter="url(#wcblur)"/><path d="M 379.9 213.5 Q 376.2 273.7 356.2 294.6 Q 336.3 315.4 318.1 333.3 Q 299.9 351.2 275.1 365.2 Q 250.2 379.2 220.8 375.1 Q 191.3 371.1 179.2 342.9 Q 167.1 314.8 153.7 295.0 Q 140.2 275.2 125.5 247.9 Q 110.7 220.7 135.6 201.7 Q 160.4 182.8 173.9 157.9 Q 187.5 133.0 215.5 132.3 Q 243.5 131.6 271.4 131.0 Q 299.3 130.4 325.4 144.9 Q 351.6 159.3 365.7 186.4 Q 379.9 213.5 378.1 243.6 Z" fill="#4f79b3" opacity="0.09" filter="url(#wcblur)"/><path d="M 261.5 357.9 Q 221.1 358.5 206.9 344.1 Q 192.8 329.8 179.8 314.2 Q 166.8 298.7 169.9 278.8 Q 173.0 258.8 174.9 237.8 Q 176.9 216.8 192.5 201.9 Q 208.2 186.9 229.4 184.0 Q 250.5 181.2 273.2 177.9 Q 296.0 174.6 306.3 196.1 Q 316.7 217.6 339.5 229.4 Q 362.3 241.1 355.6 264.4 Q 348.9 287.6 337.6 304.6 Q 326.3 321.5 313.9 337.3 Q 301.4 353.1 281.5 355.5 Q 261.5 357.9 241.3 358.2 Z" fill="#4f79b3" opacity="0.09" filter="url(#wcblur)"/><path d="M 48.3 550.1 Q 36.4 506.4 39.9 483.9 Q 43.4 461.4 54.6 440.3 Q 65.8 419.2 86.5 405.0 Q 107.3 390.8 132.0 394.3 Q 156.7 397.7 179.6 405.1 Q 202.5 412.5 215.3 432.7 Q 228.0 452.9 232.6 474.9 Q 237.1 496.9 238.6 520.9 Q 240.1 544.9 227.3 566.8 Q 214.6 588.6 190.1 594.4 Q 165.6 600.1 142.7 602.1 Q 119.7 604.1 103.7 587.7 Q 87.7 571.2 68.0 560.7 Q 48.3 550.1 42.3 528.3 Z" fill="#e5b566" opacity="0.09" filter="url(#wcblur)"/><path d="M 197.6 448.0 Q 226.6 474.2 230.5 494.3 Q 234.4 514.5 220.1 529.4 Q 205.8 544.4 196.6 561.4 Q 187.3 578.4 167.9 578.9 Q 148.6 579.5 132.2 575.1 Q 115.9 570.7 100.5 563.5 Q 85.2 556.2 71.2 543.0 Q 57.2 529.8 63.2 511.2 Q 69.3 492.6 69.3 473.7 Q 69.3 454.9 85.2 445.0 Q 101.1 435.2 117.9 432.2 Q 134.6 429.1 152.0 428.1 Q 169.3 427.0 183.5 437.5 Q 197.6 448.0 212.1 461.1 Z" fill="#e5b566" opacity="0.09" filter="url(#wcblur)"/><path d="M 436.0 498.1 Q 449.2 531.6 444.4 548.7 Q 439.6 565.8 428.3 577.9 Q 417.0 590.0 404.7 601.1 Q 392.4 612.2 375.8 611.6 Q 359.2 611.0 344.5 605.0 Q 329.9 599.0 318.5 588.1 Q 307.1 577.2 303.7 562.0 Q 300.2 546.8 295.8 529.5 Q 291.4 512.2 305.1 501.0 Q 318.8 489.7 330.0 475.4 Q 341.3 461.2 359.3 462.5 Q 377.3 463.8 397.0 463.8 Q 416.8 463.8 426.4 481.0 Q 436.0 498.1 442.6 514.8 Z" fill="#8cba72" opacity="0.07" filter="url(#wcblur)"/><path d="M 343.2 465.4 Q 372.4 482.9 389.5 480.2 Q 406.6 477.6 416.2 491.0 Q 425.7 504.3 421.6 520.1 Q 417.5 535.9 422.2 551.4 Q 426.9 567.0 417.1 579.7 Q 407.4 592.4 391.6 593.4 Q 375.7 594.4 360.9 602.8 Q 346.1 611.1 334.7 599.1 Q 323.3 587.1 313.5 576.8 Q 303.7 566.5 298.1 552.6 Q 292.5 538.7 295.2 523.6 Q 297.9 508.4 306.9 495.6 Q 315.9 482.9 329.5 474.1 Q 343.2 465.4 357.8 474.1 Z" fill="#8cba72" opacity="0.07" filter="url(#wcblur)"/><g opacity="0.32" filter="url(#softglow)"><g><path d="M 165.2 148.3 Q 189.0 139.8 201.2 137.0 Q 213.4 134.1 226.0 133.3 Q 238.5 132.4 251.1 132.1 Q 263.8 131.7 275.8 135.8 Q 287.8 139.8 299.4 144.5 Q 310.9 149.3 321.9 155.2 Q 332.8 161.1 342.7 168.8 Q 352.5 176.5 361.2 185.5 Q 369.9 194.5 376.9 204.8 Q 383.9 215.2 389.1 226.5 Q 394.4 237.8 398.6 249.5 Q 402.8 261.3 404.7 273.6 Q 406.7 286.0 407.3 298.5 Q 407.9 311.1 405.4 323.3 Q 402.9 335.6 399.1 347.5 Q 395.3 359.3 390.3 370.7 Q 385.2 382.1 378.8 392.9 Q 372.4 403.7 363.8 412.7 Q 355.1 421.8 345.8 430.2 Q 336.4 438.7 325.6 445.3 Q 314.8 451.8 302.8 455.8 Q 290.9 459.8 278.6 462.0 Q 266.3 464.3 253.9 466.6 Q 241.5 468.9 228.9 468.1 Q 216.3 467.4 204.2 464.0 Q 192.1 460.6 180.1 456.6 Q 168.2 452.6 157.6 445.8 Q 147.1 439.0 136.4 432.2 Q 125.7 425.4 117.1 416.1 Q 108.6 406.8 101.4 396.3 Q 94.3 385.9 88.4 374.7 Q 82.5 363.5 80.0 351.0 Q 77.6 338.6 75.0 326.4 Q 72.4 314.1 71.9 301.5 Q 71.4 288.9 73.1 276.4 Q 74.7 263.8 79.1 252.0 Q 83.5 240.2 89.2 229.1 Q 95.0 218.0 101.2 207.1 Q 107.3 196.1 116.5 187.6 Q 125.7 179.0 134.7 170.2 Q 143.6 161.4 154.4 154.8 Q 165.2 148.3 177.1 144.1 Z" fill="none" stroke="#4f79b3" stroke-width="1.4" stroke-linecap="round" stroke-linejoin="round" opacity="1.0"/><path d="M 360.4 218.9 Q 372.9 240.9 377.2 252.9 Q 381.6 264.8 382.4 277.4 Q 383.3 290.1 383.7 302.6 Q 384.1 315.2 382.2 327.8 Q 380.2 340.3 375.6 352.1 Q 371.0 364.0 364.0 374.6 Q 357.0 385.1 348.3 394.1 Q 339.5 403.2 330.0 411.4 Q 320.6 419.6 310.0 426.6 Q 299.4 433.6 287.0 436.2 Q 274.5 438.9 262.3 441.2 Q 250.0 443.5 237.3 444.4 Q 224.7 445.2 212.4 442.0 Q 200.2 438.7 188.6 433.8 Q 177.0 428.9 166.2 422.6 Q 155.4 416.3 145.2 408.8 Q 135.0 401.3 127.8 390.9 Q 120.7 380.4 114.4 369.5 Q 108.2 358.6 103.8 346.8 Q 99.4 335.0 97.1 322.5 Q 94.8 310.1 95.6 297.5 Q 96.3 284.8 99.4 272.7 Q 102.5 260.5 106.2 248.5 Q 109.9 236.5 117.2 226.2 Q 124.5 216.0 132.6 206.5 Q 140.7 197.0 150.3 189.0 Q 159.9 181.1 170.5 174.2 Q 181.0 167.4 193.2 163.9 Q 205.3 160.5 217.6 157.9 Q 230.0 155.2 242.5 156.3 Q 255.1 157.5 267.3 159.9 Q 279.5 162.4 291.1 167.0 Q 302.7 171.7 314.0 177.1 Q 325.4 182.6 335.1 190.7 Q 344.9 198.8 352.6 208.9 Q 360.4 218.9 366.6 229.9 Z" fill="none" stroke="#4f79b3" stroke-width="0.9799999999999999" stroke-linecap="round" stroke-linejoin="round" opacity="1.0"/><path d="M 394.2 302.7 L 391.9 293.9 M 396.5 299.1 L 397.4 307.3" fill="none" stroke="#4f79b3" stroke-width="0.9099999999999999" stroke-linecap="round" stroke-linejoin="round" opacity="0.9"/><path d="M 378.5 384.5 L 379.4 380.6 M 374.8 378.2 L 382.9 382.6 M 369.2 371.0 L 371.6 383.4 M 377.9 371.2 L 377.1 383.9" fill="none" stroke="#4f79b3" stroke-width="0.9099999999999999" stroke-linecap="round" stroke-linejoin="round" opacity="0.9"/><path d="M 311.5 435.5 L 317.8 435.1 M 324.5 442.1 L 318.7 428.2" fill="none" stroke="#4f79b3" stroke-width="0.9099999999999999" stroke-linecap="round" stroke-linejoin="round" opacity="0.9"/><path d="M 243.5 462.0 L 235.1 449.1 M 243.5 449.1 L 242.7 456.1 M 244.1 457.1 L 236.6 451.5 M 241.7 457.4 L 239.1 457.0" fill="none" stroke="#4f79b3" stroke-width="0.9099999999999999" stroke-linecap="round" stroke-linejoin="round" opacity="0.9"/><path d="M 160.7 440.9 L 164.3 437.9 M 167.1 439.7 L 154.9 436.5 M 163.8 439.5 L 163.8 430.4" fill="none" stroke="#4f79b3" stroke-width="0.9099999999999999" stroke-linecap="round" stroke-linejoin="round" opacity="0.9"/><path d="M 109.0 380.8 L 97.2 373.8 M 104.0 378.4 L 98.2 378.3" fill="none" stroke="#4f79b3" stroke-width="0.9099999999999999" stroke-linecap="round" stroke-linejoin="round" opacity="0.9"/><path d="M 82.5 295.3 L 78.1 296.9 M 80.7 301.8 L 84.0 298.0" fill="none" stroke="#4f79b3" stroke-width="0.9099999999999999" stroke-linecap="round" stroke-linejoin="round" opacity="0.9"/><path d="M 99.8 221.2 L 108.2 228.0 M 107.5 219.8 L 101.7 224.5" fill="none" stroke="#4f79b3" stroke-width="0.9099999999999999" stroke-linecap="round" stroke-linejoin="round" opacity="0.9"/><path d="M 167.0 164.3 L 156.9 167.3 M 157.6 167.1 L 160.2 167.8" fill="none" stroke="#4f79b3" stroke-width="0.9099999999999999" stroke-linecap="round" stroke-linejoin="round" opacity="0.9"/><path d="M 234.5 139.3 L 240.4 138.8 M 245.9 140.7 L 241.1 137.9 M 236.6 142.3 L 237.3 146.2" fill="none" stroke="#4f79b3" stroke-width="0.9099999999999999" stroke-linecap="round" stroke-linejoin="round" opacity="0.9"/><path d="M 325.1 164.6 L 321.3 169.2 M 322.2 169.3 L 310.7 165.4" fill="none" stroke="#4f79b3" stroke-width="0.9099999999999999" stroke-linecap="round" stroke-linejoin="round" opacity="0.9"/><path d="M 377.8 214.4 L 377.7 223.6 M 378.0 217.7 L 370.2 219.0 M 374.5 226.9 L 371.7 216.1" fill="none" stroke="#4f79b3" stroke-width="0.9099999999999999" stroke-linecap="round" stroke-linejoin="round" opacity="0.9"/><animateTransform attributeName="transform" type="rotate" from="0 240.0 300" to="360 240.0 300" dur="90s" repeatCount="indefinite"/></g><g><path d="M 296.8 396.0 Q 273.1 406.3 260.4 408.4 Q 247.6 410.5 234.9 409.5 Q 222.1 408.5 209.4 405.8 Q 196.8 403.2 185.5 396.8 Q 174.1 390.5 165.0 381.3 Q 155.8 372.2 148.6 361.5 Q 141.4 350.8 137.3 338.7 Q 133.2 326.5 132.0 313.9 Q 130.8 301.2 131.5 288.4 Q 132.3 275.7 136.2 263.4 Q 140.1 251.2 147.8 240.9 Q 155.4 230.6 163.8 220.8 Q 172.2 211.0 183.8 205.2 Q 195.3 199.5 207.5 195.7 Q 219.7 191.9 232.5 191.3 Q 245.2 190.8 258.1 191.3 Q 271.1 191.9 283.0 197.3 Q 294.8 202.7 305.4 210.2 Q 316.1 217.6 324.2 227.7 Q 332.3 237.9 337.3 249.7 Q 342.3 261.5 345.9 273.8 Q 349.4 286.0 349.8 298.8 Q 350.3 311.7 346.8 324.0 Q 343.4 336.4 339.0 348.6 Q 334.6 360.7 325.6 370.1 Q 316.7 379.5 306.7 387.7 Q 296.8 396.0 284.9 401.1 Z" fill="none" stroke="#4f79b3" stroke-width="1.1199999999999999" stroke-linecap="round" stroke-linejoin="round" opacity="1.0" stroke-dasharray="8.4 5.9"/><path d="M 340.8 300.0 L 350.9 300.0" fill="none" stroke="#4f79b3" stroke-width="0.77" stroke-linecap="round" stroke-linejoin="round" opacity="0.85"/><path d="M 337.4 326.1 L 347.1 328.7" fill="none" stroke="#4f79b3" stroke-width="0.77" stroke-linecap="round" stroke-linejoin="round" opacity="0.85"/><path d="M 327.3 350.4 L 336.0 355.4" fill="none" stroke="#4f79b3" stroke-width="0.77" stroke-linecap="round" stroke-linejoin="round" opacity="0.85"/><path d="M 311.3 371.3 L 318.4 378.4" fill="none" stroke="#4f79b3" stroke-width="0.77" stroke-linecap="round" stroke-linejoin="round" opacity="0.85"/><path d="M 290.4 387.3 L 295.4 396.0" fill="none" stroke="#4f79b3" stroke-width="0.77" stroke-linecap="round" stroke-linejoin="round" opacity="0.85"/><path d="M 266.1 397.4 L 268.7 407.1" fill="none" stroke="#4f79b3" stroke-width="0.77" stroke-linecap="round" stroke-linejoin="round" opacity="0.85"/><path d="M 240.0 400.8 L 240.0 410.9" fill="none" stroke="#4f79b3" stroke-width="0.77" stroke-linecap="round" stroke-linejoin="round" opacity="0.85"/><path d="M 213.9 397.4 L 211.3 407.1" fill="none" stroke="#4f79b3" stroke-width="0.77" stroke-linecap="round" stroke-linejoin="round" opacity="0.85"/><path d="M 189.6 387.3 L 184.6 396.0" fill="none" stroke="#4f79b3" stroke-width="0.77" stroke-linecap="round" stroke-linejoin="round" opacity="0.85"/><path d="M 168.7 371.3 L 161.6 378.4" fill="none" stroke="#4f79b3" stroke-width="0.77" stroke-linecap="round" stroke-linejoin="round" opacity="0.85"/><path d="M 152.7 350.4 L 144.0 355.4" fill="none" stroke="#4f79b3" stroke-width="0.77" stroke-linecap="round" stroke-linejoin="round" opacity="0.85"/><path d="M 142.6 326.1 L 132.9 328.7" fill="none" stroke="#4f79b3" stroke-width="0.77" stroke-linecap="round" stroke-linejoin="round" opacity="0.85"/><path d="M 139.2 300.0 L 129.1 300.0" fill="none" stroke="#4f79b3" stroke-width="0.77" stroke-linecap="round" stroke-linejoin="round" opacity="0.85"/><path d="M 142.6 273.9 L 132.9 271.3" fill="none" stroke="#4f79b3" stroke-width="0.77" stroke-linecap="round" stroke-linejoin="round" opacity="0.85"/><path d="M 152.7 249.6 L 144.0 244.6" fill="none" stroke="#4f79b3" stroke-width="0.77" stroke-linecap="round" stroke-linejoin="round" opacity="0.85"/><path d="M 168.7 228.7 L 161.6 221.6" fill="none" stroke="#4f79b3" stroke-width="0.77" stroke-linecap="round" stroke-linejoin="round" opacity="0.85"/><path d="M 189.6 212.7 L 184.6 204.0" fill="none" stroke="#4f79b3" stroke-width="0.77" stroke-linecap="round" stroke-linejoin="round" opacity="0.85"/><path d="M 213.9 202.6 L 211.3 192.9" fill="none" stroke="#4f79b3" stroke-width="0.77" stroke-linecap="round" stroke-linejoin="round" opacity="0.85"/><path d="M 240.0 199.2 L 240.0 189.1" fill="none" stroke="#4f79b3" stroke-width="0.77" stroke-linecap="round" stroke-linejoin="round" opacity="0.85"/><path d="M 266.1 202.6 L 268.7 192.9" fill="none" stroke="#4f79b3" stroke-width="0.77" stroke-linecap="round" stroke-linejoin="round" opacity="0.85"/><path d="M 290.4 212.7 L 295.4 204.0" fill="none" stroke="#4f79b3" stroke-width="0.77" stroke-linecap="round" stroke-linejoin="round" opacity="0.85"/><path d="M 311.3 228.7 L 318.4 221.6" fill="none" stroke="#4f79b3" stroke-width="0.77" stroke-linecap="round" stroke-linejoin="round" opacity="0.85"/><path d="M 327.3 249.6 L 336.0 244.6" fill="none" stroke="#4f79b3" stroke-width="0.77" stroke-linecap="round" stroke-linejoin="round" opacity="0.85"/><path d="M 337.4 273.9 L 347.1 271.3" fill="none" stroke="#4f79b3" stroke-width="0.77" stroke-linecap="round" stroke-linejoin="round" opacity="0.85"/><animateTransform attributeName="transform" type="rotate" from="360 240.0 300" to="0 240.0 300" dur="70s" repeatCount="indefinite"/></g><path d="M 240.4 212.2 L 314.5 344.1 L 162.6 344.8 L 240.4 211.9 Z" fill="none" stroke="#4f79b3" stroke-width="1.0499999999999998" stroke-linecap="round" stroke-linejoin="round" opacity="0.9"/><path d="M 240.2 387.7 L 166.2 255.1 L 313.9 257.6 L 239.7 387.2 Z" fill="none" stroke="#4f79b3" stroke-width="1.0499999999999998" stroke-linecap="round" stroke-linejoin="round" opacity="0.9"/><path d="M 259.9 317.1 Q 246.2 326.3 238.0 325.3 Q 229.8 324.3 223.7 319.0 Q 217.5 313.7 215.4 305.7 Q 213.3 297.8 216.5 290.2 Q 219.7 282.6 226.8 278.4 Q 233.9 274.3 242.1 274.8 Q 250.3 275.4 256.9 280.5 Q 263.4 285.7 264.8 293.9 Q 266.2 302.1 263.1 309.6 Q 259.9 317.1 253.1 321.7 Z" fill="none" stroke="#4f79b3" stroke-width="1.1199999999999999" stroke-linecap="round" stroke-linejoin="round" opacity="1.0"/></g><g><path d="M 240.0 340 Q 180.0 326 122.0 334 L 122.0 290 Q 180.0 280 240.0 294 Q 300.0 280 358.0 290 L 358.0 334 Q 300.0 326 240.0 340 Z" fill="#4f79b3" opacity="0.85" /><path d="M 240.0 330 Q 185.0 316 134.0 324 L 134.0 286 Q 185.0 274 240.0 288 Z" fill="#fdf8ea" opacity="1.0" /><path d="M 240.0 330 Q 185.0 316 134.0 324 L 134.0 286 Q 185.0 274 240.0 288" fill="none" stroke="#43382b" stroke-width="2.0" stroke-linecap="round" stroke-linejoin="round" opacity="1.0"/><path d="M 225.7 296.8 Q 201.7 294.8 189.5 294.0 Q 177.2 293.3 164.5 292.6 L 151.7 292.0" fill="none" stroke="#6b5d4a" stroke-width="1.1" stroke-linecap="round" stroke-linejoin="round" opacity="0.5"/><path d="M 226.0 306.1 Q 201.9 303.9 189.0 303.4 Q 176.1 302.9 164.0 302.0 L 151.9 301.1" fill="none" stroke="#6b5d4a" stroke-width="1.1" stroke-linecap="round" stroke-linejoin="round" opacity="0.5"/><path d="M 226.0 314.9 Q 201.0 313.4 188.8 312.3 Q 176.6 311.2 164.1 310.5 L 151.7 309.8" fill="none" stroke="#6b5d4a" stroke-width="1.1" stroke-linecap="round" stroke-linejoin="round" opacity="0.5"/><path d="M 240.0 330 Q 295.0 316 346.0 324 L 346.0 286 Q 295.0 274 240.0 288 Z" fill="#fdf8ea" opacity="1.0" /><path d="M 240.0 330 Q 295.0 316 346.0 324 L 346.0 286 Q 295.0 274 240.0 288" fill="none" stroke="#43382b" stroke-width="2.0" stroke-linecap="round" stroke-linejoin="round" opacity="1.0"/><path d="M 253.7 297.2 Q 278.8 294.9 291.3 294.3 Q 303.8 293.8 316.0 292.9 L 328.2 292.1" fill="none" stroke="#6b5d4a" stroke-width="1.1" stroke-linecap="round" stroke-linejoin="round" opacity="0.5"/><path d="M 253.9 306.1 Q 279.0 304.2 290.9 303.0 Q 302.8 301.9 315.3 301.3 L 327.9 300.7" fill="none" stroke="#6b5d4a" stroke-width="1.1" stroke-linecap="round" stroke-linejoin="round" opacity="0.5"/><path d="M 254.3 314.8 Q 278.3 312.9 290.7 312.1 Q 303.1 311.3 315.5 310.7 L 327.9 310.2" fill="none" stroke="#6b5d4a" stroke-width="1.1" stroke-linecap="round" stroke-linejoin="round" opacity="0.5"/><path d="M 240.0 330 L 240.0 288" fill="none" stroke="#43382b" stroke-width="2.0" stroke-linecap="round" stroke-linejoin="round" opacity="0.8"/><circle cx="240.0" cy="234" r="15" fill="#7fd6e8" opacity="0.9" filter="url(#bigglow)"><animate attributeName="r" values="13.5;16;13.5" dur="4s" repeatCount="indefinite"/></circle><circle cx="236.0" cy="230" r="4.5" fill="#ffffff" opacity="0.9"/><path d="M 184.3 271.6 L 185.9 266.3 M 190.8 266.9 L 182.0 261.5 M 184.0 266.9 L 187.6 270.4 M 190.8 267.2 L 189.3 271.0" fill="none" stroke="#4f79b3" stroke-width="1.5" stroke-linecap="round" opacity="0"><animate attributeName="opacity" values="0;0.8;0" dur="4.5s" begin="0.0s" repeatCount="indefinite"/><animateTransform attributeName="transform" type="translate" values="0 0; 0 -26" dur="4.5s" begin="0.0s" repeatCount="indefinite"/></path><path d="M 223.5 270.9 L 222.5 267.8 M 227.4 267.5 L 217.4 271.0 M 222.3 261.6 L 225.8 271.9" fill="none" stroke="#4f79b3" stroke-width="1.5" stroke-linecap="round" opacity="0"><animate attributeName="opacity" values="0;0.8;0" dur="5.3s" begin="1.1s" repeatCount="indefinite"/><animateTransform attributeName="transform" type="translate" values="0 0; 0 -26" dur="5.3s" begin="1.1s" repeatCount="indefinite"/></path><path d="M 258.5 266.6 L 257.7 262.3 M 252.5 264.8 L 258.0 269.3 M 256.1 271.6 L 253.4 267.9 M 252.3 262.6 L 253.5 271.7" fill="none" stroke="#4f79b3" stroke-width="1.5" stroke-linecap="round" opacity="0"><animate attributeName="opacity" values="0;0.8;0" dur="6.1s" begin="2.2s" repeatCount="indefinite"/><animateTransform attributeName="transform" type="translate" values="0 0; 0 -26" dur="6.1s" begin="2.2s" repeatCount="indefinite"/></path><path d="M 290.9 268.9 L 289.1 266.8 M 295.5 266.8 L 299.8 261.9" fill="none" stroke="#4f79b3" stroke-width="1.5" stroke-linecap="round" opacity="0"><animate attributeName="opacity" values="0;0.8;0" dur="6.9s" begin="3.3s" repeatCount="indefinite"/><animateTransform attributeName="transform" type="translate" values="0 0; 0 -26" dur="6.9s" begin="3.3s" repeatCount="indefinite"/></path><animateTransform attributeName="transform" type="translate" values="0 0; 0 -9; 0 0" dur="6.5s" repeatCount="indefinite" calcMode="spline" keySplines="0.45 0 0.55 1; 0.45 0 0.55 1"/></g><g><ellipse cx="120" cy="200" rx="9" ry="10.35" fill="#7fd6e8" opacity="0.5"/><ellipse cx="120" cy="200" rx="9" ry="10.35" fill="none" stroke="#4f79b3" stroke-width="1.4" opacity="0.7"/><circle cx="117.3" cy="196.4" r="2.25" fill="#ffffff" opacity="0.9"/><animateTransform attributeName="transform" type="translate" values="0 0; 0 -8; 0 0" dur="5.0s" repeatCount="indefinite" calcMode="spline" keySplines="0.45 0 0.55 1; 0.45 0 0.55 1"/></g><g><ellipse cx="368" cy="176" rx="7" ry="8.049999999999999" fill="#7fd6e8" opacity="0.5"/><ellipse cx="368" cy="176" rx="7" ry="8.049999999999999" fill="none" stroke="#4f79b3" stroke-width="1.4" opacity="0.7"/><circle cx="365.9" cy="173.2" r="1.75" fill="#ffffff" opacity="0.9"/><animateTransform attributeName="transform" type="translate" values="0 0; 0 -10; 0 0" dur="6.3s" repeatCount="indefinite" calcMode="spline" keySplines="0.45 0 0.55 1; 0.45 0 0.55 1"/></g><g><ellipse cx="350" cy="330" rx="6" ry="6.8999999999999995" fill="#7fd6e8" opacity="0.5"/><ellipse cx="350" cy="330" rx="6" ry="6.8999999999999995" fill="none" stroke="#4f79b3" stroke-width="1.4" opacity="0.7"/><circle cx="348.2" cy="327.6" r="1.5" fill="#ffffff" opacity="0.9"/><animateTransform attributeName="transform" type="translate" values="0 0; 0 -12; 0 0" dur="7.6s" repeatCount="indefinite" calcMode="spline" keySplines="0.45 0 0.55 1; 0.45 0 0.55 1"/></g><g><ellipse cx="116" cy="350" rx="5" ry="5.75" fill="#7fd6e8" opacity="0.5"/><ellipse cx="116" cy="350" rx="5" ry="5.75" fill="none" stroke="#4f79b3" stroke-width="1.4" opacity="0.7"/><circle cx="114.5" cy="348.0" r="1.25" fill="#ffffff" opacity="0.9"/><animateTransform attributeName="transform" type="translate" values="0 0; 0 -14; 0 0" dur="8.9s" repeatCount="indefinite" calcMode="spline" keySplines="0.45 0 0.55 1; 0.45 0 0.55 1"/></g><circle cx="64.42016906327116" cy="384.7277494376519" r="1.671404833860891" fill="#7fd6e8" opacity="0"><animate attributeName="opacity" values="0;0.85;0" dur="5.7s" begin="1.1s" repeatCount="indefinite"/><animateTransform attributeName="transform" type="translate" values="0 0; 0 -24.94182837525227" dur="5.7s" begin="1.1s" repeatCount="indefinite"/></circle><circle cx="109.92873595726708" cy="384.7375838290652" r="1.4781628284887403" fill="#7fd6e8" opacity="0"><animate attributeName="opacity" values="0;0.85;0" dur="8.0s" begin="4.0s" repeatCount="indefinite"/><animateTransform attributeName="transform" type="translate" values="0 0; 0 -26.121479766320185" dur="8.0s" begin="4.0s" repeatCount="indefinite"/></circle><circle cx="113.06443954570022" cy="522.9441437668013" r="1.994599986618316" fill="#7fd6e8" opacity="0"><animate attributeName="opacity" values="0;0.85;0" dur="8.1s" begin="6.4s" repeatCount="indefinite"/><animateTransform attributeName="transform" type="translate" values="0 0; 0 -16.185256389518884" dur="8.1s" begin="6.4s" repeatCount="indefinite"/></circle><circle cx="252.83822911720395" cy="458.5052045862024" r="1.6950840998136607" fill="#7fd6e8" opacity="0"><animate attributeName="opacity" values="0;0.85;0" dur="5.2s" begin="0.8s" repeatCount="indefinite"/><animateTransform attributeName="transform" type="translate" values="0 0; 0 -29.94149906552809" dur="5.2s" begin="0.8s" repeatCount="indefinite"/></circle><circle cx="93.52010013560465" cy="364.4806208420883" r="2.32776229877176" fill="#7fd6e8" opacity="0"><animate attributeName="opacity" values="0;0.85;0" dur="8.4s" begin="3.1s" repeatCount="indefinite"/><animateTransform attributeName="transform" type="translate" values="0 0; 0 -20.447132985774665" dur="8.4s" begin="3.1s" repeatCount="indefinite"/></circle><circle cx="131.45914758841667" cy="432.6680699454749" r="1.6378736668544114" fill="#7fd6e8" opacity="0"><animate attributeName="opacity" values="0;0.85;0" dur="8.1s" begin="0.1s" repeatCount="indefinite"/><animateTransform attributeName="transform" type="translate" values="0 0; 0 -29.281805544681944" dur="8.1s" begin="0.1s" repeatCount="indefinite"/></circle><circle cx="135.71962073915284" cy="407.72372746165325" r="1.9018811314945552" fill="#7fd6e8" opacity="0"><animate attributeName="opacity" values="0;0.85;0" dur="7.5s" begin="6.6s" repeatCount="indefinite"/><animateTransform attributeName="transform" type="translate" values="0 0; 0 -22.758103377825375" dur="7.5s" begin="6.6s" repeatCount="indefinite"/></circle><circle cx="403.34750278713443" cy="544.5102262465347" r="1.6266049337512902" fill="#7fd6e8" opacity="0"><animate attributeName="opacity" values="0;0.85;0" dur="5.1s" begin="3.2s" repeatCount="indefinite"/><animateTransform attributeName="transform" type="translate" values="0 0; 0 -17.26172496648133" dur="5.1s" begin="3.2s" repeatCount="indefinite"/></circle><circle cx="361.108871151374" cy="577.575129142483" r="1.2364436574528765" fill="#7fd6e8" opacity="0"><animate attributeName="opacity" values="0;0.85;0" dur="5.5s" begin="4.6s" repeatCount="indefinite"/><animateTransform attributeName="transform" type="translate" values="0 0; 0 -25.760732833294078" dur="5.5s" begin="4.6s" repeatCount="indefinite"/></circle><circle cx="372.6080313170329" cy="503.25315116310327" r="1.4620308566785507" fill="#7fd6e8" opacity="0"><animate attributeName="opacity" values="0;0.85;0" dur="7.1s" begin="1.9s" repeatCount="indefinite"/><animateTransform attributeName="transform" type="translate" values="0 0; 0 -26.74550836472399" dur="7.1s" begin="1.9s" repeatCount="indefinite"/></circle><rect width="480" height="640" filter="url(#grain)"/></svg>