<svg xmlns="http://www.w3.org/2000/svg" viewBox="0 0 40 40" width="40" height="40" role="img" aria-label="stats"><defs>
  <filter id="wcblur" x="-30%" y="-30%" width="160%" height="160%">
    <feGaussianBlur stdDeviation="3"/>
  </filter>
  <filter id="softglow" x="-60%" y="-60%" width="220%" height="220%">
    <feGaussianBlur stdDeviation="2.4" result="b"/>
    <feMerge><feMergeNode in="b"/><feMergeNode in="SourceGraphic"/></feMerge>
  </filter>
  <filter id="bigglow" x="-80%" y="-80%" width="260%" height="260%">
    <feGaussianBlur stdDeviation="6" result="b"/>
    <feMerge><feMergeNode in="b"/><feMergeNode in="SourceGraphic"/></feMerge>
  </filter>
  <filter id="grain">
    <feTurbulence type="fractalNoise" baseFrequency="0.8" numOctaves="2"
      seed="7" stitchTiles="stitch"/>
    <feColorMatrix type="matrix"
      values="0 0 0 0 0.26 0 0 0 0 0.22 0 0 0 0 0.16 0 0 0 0.05 0"/>
  </filter></defs><rect x="1.5" y="1.5" width="37" height="37" rx="9" fill="#f9f1de"/><path d="M 4.4 4.1 Q 15.3 3.5 20.3 3.6 Q 25.2 3.7 30.5 3.3 L 35.7 2.8 M 35.8 2.7 Q 36.7 14.2 36.4 20.0 Q 36.2 25.8 36.5 31.3 L 36.8 36.7 M 37.0 36.9 Q 25.8 37.1 20.1 37.0 Q 14.3 37.0 9.1 36.6 L 3.9 36.3 M 3.7 36.1 Q 4.3 25.5 4.2 20.2 Q 4.1 14.9 4.1 9.6 L 4.2 4.3" fill="none" stroke="#43382b" stroke-width="1.5" stroke-linecap="round" stroke-linejoin="round" opacity="0.7"/><path d="M 15.0 27.1 Q 9.7 22.3 9.3 18.8 Q 8.9 15.3 10.4 12.1 Q 11.8 8.9 15.0 7.3 Q 18.1 5.7 21.6 6.4 Q 25.0 7.0 27.6 9.3 Q 30.2 11.7 30.6 15.2 Q 31.1 18.7 29.6 21.9 Q 28.2 25.0 25.0 26.5 Q 21.8 28.1 18.4 27.6 Q 15.0 27.1 12.3 24.7 Z" fill="none" stroke="#4f79b3" stroke-width="2.2" stroke-linecap="round" stroke-linejoin="round" opacity="1.0"/><path d="M 21.5 27.4 Q 15.5 25.5 13.2 23.5 Q 10.9 21.5 10.7 18.5 Q 10.5 15.4 11.9 12.7 Q 13.2 10.0 15.8 8.3 Q 18.5 6.6 21.5 7.5 Q 24.5 8.4 26.8 10.4 Q 29.1 12.5 29.5 15.6 Q 29.8 18.7 28.4 21.4 Q 27.0 24.1 24.2 25.7 Q 21.5 27.4 18.5 26.4 Z" fill="#7fd6e8" opacity="0.25" /><path d="M 14 12 Q 17 9 21 9.5" fill="none" stroke="#ffffff" stroke-width="1.6" stroke-linecap="round" stroke-linejoin="round" opacity="0.9"/><path d="M 11 30 Q 20 25 29 30 L 27 34 L 13 34 Z" fill="none" stroke="#43382b" stroke-width="2.0" stroke-linecap="round" stroke-linejoin="round" opacity="1.0"/><path d="M 20 12.5 Q 20.99 16.01 24.5 17 Q 20.99 17.99 20 21.5 Q 19.01 17.99 15.5 17 Q 19.01 16.01 20 12.5 Z" fill="#ffffff" filter="url(#softglow)"><animate attributeName="opacity" values="0.15871125082855364;1;0.15871125082855364" dur="2.2s" begin="0.0s" repeatCount="indefinite"/></path></svg>