<svg xmlns="http://www.w3.org/2000/svg" viewBox="0 0 40 40" width="40" height="40" role="img" aria-label="works"><defs>
  <filter id="wcblur" x="-30%" y="-30%" width="160%" height="160%">
    <feGaussianBlur stdDeviation="3"/>
  </filter>
  <filter id="softglow" x="-60%" y="-60%" width="220%" height="220%">
    <feGaussianBlur stdDeviation="2.4" result="b"/>
    <feMerge><feMergeNode in="b"/><feMergeNode in="SourceGraphic"/></feMerge>
  </filter>
  <filter id="bigglow" x="-80%" y="-80%" width="260%" height="260%">
    <feGaussianBlur stdDeviation="6" result="b"/>
    <feMerge><feMergeNode in="b"/><feMergeNode in="SourceGraphic"/></feMerge>
  </filter>
  <filter id="grain">
    <feTurbulence type="fractalNoise" baseFrequency="0.8" numOctaves="2"
      seed="7" stitchTiles="stitch"/>
    <feColorMatrix type="matrix"
      values="0 0 0 0 0.26 0 0 0 0 0.22 0 0 0 0 0.16 0 0 0 0.05 0"/>
  </filter></defs><rect x="1.5" y="1.5" width="37" height="37" rx="9" fill="#f9f1de"/><path d="M 4.4 4.1 Q 15.3 3.5 20.3 3.6 Q 25.2 3.7 30.5 3.3 L 35.7 2.8 M 35.8 2.7 Q 36.7 14.2 36.4 20.0 Q 36.2 25.8 36.5 31.3 L 36.8 36.7 M 37.0 36.9 Q 25.8 37.1 20.1 37.0 Q 14.3 37.0 9.1 36.6 L 3.9 36.3 M 3.7 36.1 Q 4.3 25.5 4.2 20.2 Q 4.1 14.9 4.1 9.6 L 4.2 4.3" fill="none" stroke="#43382b" stroke-width="1.5" stroke-linecap="round" stroke-linejoin="round" opacity="0.7"/><path d="M 5.7 16.2 Q 14.5 16.9 19.3 16.8 Q 24.2 16.7 28.9 16.4 L 33.5 16.1 M 34.0 16.2 Q 34.0 21.5 33.8 24.3 Q 33.7 27.1 33.4 30.0 L 33.2 32.9 M 33.2 32.8 Q 24.3 33.3 19.9 33.3 Q 15.6 33.3 11.1 33.3 L 6.6 33.4 M 6.6 33.7 Q 6.5 27.2 5.9 24.9 Q 5.3 22.6 5.3 19.4 L 5.4 16.1" fill="none" stroke="#43382b" stroke-width="2.2" stroke-linecap="round" stroke-linejoin="round" opacity="1.0"/><path d="M 6 17 Q 20 5 34 17" fill="none" stroke="#43382b" stroke-width="2.2" stroke-linecap="round" stroke-linejoin="round" opacity="1.0"/><path d="M 20 17 L 20 33 M 6 24 L 34 24" fill="none" stroke="#43382b" stroke-width="1.2" stroke-linecap="round" stroke-linejoin="round" opacity="0.5"/><path d="M 17.5 20 L 22.5 20 L 22.5 27 L 20 29 L 17.5 27 Z" fill="#e5b566" opacity="0.9" /><path d="M 31 6 Q 31.88 9.12 35 10 Q 31.88 10.88 31 14 Q 30.12 10.88 27 10 Q 30.12 9.12 31 6 Z" fill="#7fd6e8" filter="url(#softglow)"><animate attributeName="opacity" values="0.21973218719435356;1;0.21973218719435356" dur="3.2s" begin="1.1s" repeatCount="indefinite"/></path></svg>